<svg width="90" height="105" viewBox="0 0 90 105" fill="none" 
    xmlns="http://www.w3.org/2000/svg">
    <path class="bg" fill-rule="evenodd" clip-rule="evenodd" d="M0.322911 56.6355C-0.718252 47.2388 0.997608 26.0558 2.08596 14.2676C2.58295 8.95291 6.23354 4.68626 11.1723 3.64431C22.8078 1.22351 34.108 0 44.7847 0C55.4543 0 66.7525 1.22351 78.3649 3.63825C83.3308 4.68222 86.9894 8.94988 87.4824 14.2635L87.5547 15.0392C89.0245 30.9115 90.4573 48.3029 89.2133 56.8332C83.5366 95.7384 44.7716 105 44.7716 105C44.7716 105 4.60403 95.2866 0.322911 56.6355Z" fill="#0033A1"/>
    <path class="fg" fill-rule="evenodd" clip-rule="evenodd" d="M60.6965 80.5147L49.6604 58.8254C48.8441 57.2226 47.5751 56.1262 47.4265 55.991C50.8692 57.0753 54.9275 59.7221 61.5128 59.7221C67.8311 59.7221 73.2015 55.9678 75.329 53.9767L75.2979 54.2934C74.1232 65.3081 68.7146 74.0522 60.6965 80.5147ZM60.5841 23.4515C60.1293 23.4515 59.6664 23.4404 59.1885 23.4162C50.5771 22.9633 45.8221 18.504 38.6383 18.1268C38.2387 18.1066 37.8421 18.0955 37.4486 18.0955C35.2217 18.0955 33.0751 18.4233 31.0319 19.0305L24.7056 14.7316C30.3622 13.9408 37.293 13.269 44.8371 13.269C57.0158 13.269 67.6614 14.9737 73.6844 16.1538C73.6844 16.1538 73.8622 18.4546 73.9656 19.6549C70.7176 21.4362 66.4877 23.4515 60.5841 23.4515ZM40.9877 87.7024C40.3552 87.4291 39.7277 87.1436 39.1092 86.8481C25.6815 80.3341 16.0189 69.4708 14.3944 54.2934C13.9516 50.1317 14.1856 42.5132 14.6374 34.7647L40.9877 87.7024ZM80.8913 13.7007C80.6955 11.5603 79.3923 9.74777 77.334 9.31405C71.7116 8.14501 59.3461 5.78372 44.8371 5.78372C30.3281 5.78372 17.9516 8.14501 12.3291 9.31405C10.282 9.74777 8.98176 11.5603 8.78397 13.7007C7.95365 22.6698 5.99984 45.8217 6.98779 55.0953C9.23779 76.0574 24.1524 89.5604 42.1594 96.269C43.0439 96.5989 43.9375 96.9126 44.8371 97.2091C45.046 97.1415 45.2558 97.0709 45.4646 96.9963C45.4807 96.9943 45.4947 96.9902 45.5098 96.9832C47.7528 96.2216 49.9596 95.3491 52.0951 94.3818L19.4496 30.3296L16.2418 27.939C15.7558 27.5679 15.4346 27.0101 15.4346 26.3564V16.407C15.4346 15.8502 15.8773 15.4054 16.4215 15.4054C16.6283 15.4054 16.8472 15.4709 17.0068 15.5859L24.9165 21.5734C25.4275 21.9647 25.6815 22.5619 25.6815 23.1721L25.7046 27.1382C28.9958 25.258 32.9646 24.3179 37.0189 24.3179C37.4897 24.3179 37.9596 24.329 38.4295 24.3563C45.6132 24.7315 50.5771 29.561 59.1885 30.0129C59.6544 30.0381 60.1112 30.0492 60.557 30.0492C66.7758 30.0492 71.1533 27.817 74.4726 25.9651C74.8501 31.0437 75.2166 36.663 75.4033 41.7416L75.4977 46.7708C71.577 49.9854 65.1664 52.7996 61.5128 52.7996C55.4516 52.7996 51.3391 48.9415 45.6132 48.9415C42.801 48.9415 40.2638 49.7817 38.0781 51.2392L58.318 91.1722C60.8511 89.6824 63.2638 88.0232 65.5138 86.1945C65.5158 86.1945 65.5158 86.1945 65.5178 86.1905C74.7156 78.7203 81.2507 68.4127 82.6734 55.0953C83.6694 45.8217 81.7186 22.6698 80.8913 13.7007Z" fill="white"/>
</svg>
